<svg id="Capa_1" data-name="Capa 1" xmlns="http://www.w3.org/2000/svg" viewBox="0 0 64.16 67.73"><defs><style>.cls-1{fill:none;stroke:#4260a2;stroke-miterlimit:10;stroke-width:1.5px;}</style></defs><title>usuario_azul</title><path class="cls-1" d="M300.24,400.2s1.42,4.77-6.43,7.54c0,0-11.31,4.08-14.13,7.85s-3.46,6.91-3.46,14.13" transform="translate(-275.46 -361.99)"/><path class="cls-1" d="M315,400s-.31,5.1,4.4,7,11.15,5,11.15,5,8.17,3.61,8.32,12.25v5.47" transform="translate(-275.46 -361.99)"/><path class="cls-1" d="M317.28,366.71c2.69,3,3.29,8,3.44,10.32.13,1.91,0,3.61,0,4.46a5,5,0,0,1,.9,3.5,9.2,9.2,0,0,1-2,4.53s-1.07,13.51-12.2,13.32-11.89-13.59-11.89-13.59a8.29,8.29,0,0,1-2.32-4.32,6.07,6.07,0,0,1,.38-3.57s0-4.69.13-6.88a11.74,11.74,0,0,1,6.12-9.81,15.73,15.73,0,0,1,8.46-1.91A12.81,12.81,0,0,1,317.28,366.71Z" transform="translate(-275.46 -361.99)"/></svg>