<svg id="Capa_1" data-name="Capa 1" xmlns="http://www.w3.org/2000/svg" viewBox="0 0 58.5 59.12"><defs><style>.cls-1{fill:none;stroke:#fff;stroke-linecap:round;stroke-miterlimit:10;stroke-width:1.3px;}</style></defs><title>flotante</title><path class="cls-1" d="M262.41,430.25a17.61,17.61,0,0,1-3.16.29,20.61,20.61,0,0,1-7.42-1.14c-.25-.1,1.4-3.78-2.24-6.81-4.11-3.43-8.43.07-8.48,0A54.92,54.92,0,0,1,235.37,412c0-.06,4.67-2.42,4.57-6.58-.11-4.32-4.62-5.6-4.58-5.72,1.72-4.15,3.57-8.06,6.46-11.31.07-.08,4.61,2.81,8,.28a7,7,0,0,0,2.7-6.57,19.59,19.59,0,0,1,6.75-.94,18.63,18.63,0,0,1,6.13.77c.14.06-.63,4.3,3,6.58,4,2.47,7.51-.88,7.53-.86,3.67,3.43,5.37,6.82,7.08,11.51,0,.06-4.83,2.3-4.69,6.51a7.34,7.34,0,0,0,2.82,5.32" transform="translate(-234.7 -380.55)"/><path class="cls-1" d="M262.51,416.54a11.42,11.42,0,1,1,6.41-5.21" transform="translate(-234.7 -380.55)"/><rect class="cls-1" x="27.84" y="30.66" width="30.01" height="27.82"/><line class="cls-1" x1="27.84" y1="38.74" x2="57.71" y2="38.74"/><polyline class="cls-1" points="37.5 46.14 41.74 50.05 47.98 43.81"/></svg>