<svg id="Capa_1" data-name="Capa 1" xmlns="http://www.w3.org/2000/svg" viewBox="0 0 30.69 37.67"><defs><style>.cls-1{fill:none;stroke:#fff;stroke-linecap:round;stroke-miterlimit:10;stroke-width:1.17px;}.cls-2{fill:#fff;}</style></defs><title>proc_compra</title><polyline class="cls-1" points="27.07 14.95 27.07 10.66 16.65 0.58 0.58 0.58 0.58 32.03"/><polyline class="cls-1" points="0.58 32.11 0.58 37.09 27.07 37.09 27.07 35.03"/><path class="cls-2" d="M299.35,395.1l0-1.29a4.77,4.77,0,0,1-1.59-.39,2.74,2.74,0,0,1-1.08-1,3.6,3.6,0,0,1-.56-1.69l1.29-.28A3.27,3.27,0,0,0,298,392a1.88,1.88,0,0,0,1.33.73l-.12-4.11a5.37,5.37,0,0,1-1.65-.57,2.38,2.38,0,0,1-1-.93,3,3,0,0,1,.54-3.63,3.39,3.39,0,0,1,1.92-.76l0-.62.76,0,0,.62a3.19,3.19,0,0,1,1.81.61,2.94,2.94,0,0,1,1.07,1.9l-1.33.24a2.22,2.22,0,0,0-.51-1.15,1.76,1.76,0,0,0-1-.51l.1,3.72a10.26,10.26,0,0,1,1.3.34,3.18,3.18,0,0,1,1,.62,2.6,2.6,0,0,1,.61.89,3.09,3.09,0,0,1,.24,1.13,3.1,3.1,0,0,1-3,3.29l0,1.31ZM299,383.8a1.91,1.91,0,0,0-1.17.64,1.79,1.79,0,0,0,0,2.26,2.54,2.54,0,0,0,1.27.68Zm1,8.9a1.91,1.91,0,0,0,1.23-.69,2,2,0,0,0,.45-1.4,1.74,1.74,0,0,0-.38-1.12,3,3,0,0,0-1.41-.72Z" transform="translate(-291.06 -377.57)"/><circle class="cls-1" cx="21.49" cy="24.95" r="2.91"/><path class="cls-1" d="M321.15,401c0,.22,0,3,0,3l-2,0a6.76,6.76,0,0,1-.92,2.21l1.32,1.44-1.94,1.94-1.42-1.34a6.76,6.76,0,0,1-2.24.93l0,1.91-2.93,0,0-1.9a6.76,6.76,0,0,1-2.24-.95l-1.39,1.44-2-2.05,1.33-1.45a6.76,6.76,0,0,1-.89-2.14l-2,0,0-2.86h1.93a7.07,7.07,0,0,1,.88-2.22l-1.38-1.38,2-1.93,1.36,1.31a6.76,6.76,0,0,1,2.26-1l0-1.94,3,0v1.9a6.76,6.76,0,0,1,2.12.86l1.4-1.28,2.1,2.07-1.38,1.28a6.76,6.76,0,0,1,.94,2.26Z" transform="translate(-291.06 -377.57)"/></svg>