<svg id="Capa_1" data-name="Capa 1" xmlns="http://www.w3.org/2000/svg" viewBox="0 0 43.57 51.53"><defs><style>.cls-1{fill:none;stroke:#fff;stroke-linecap:round;stroke-miterlimit:10;stroke-width:1.3px;}.cls-2{fill:#fff;}</style></defs><title>subir_factura</title><polygon class="cls-1" points="25.89 39.89 32.7 39.89 32.7 33.18 36.97 33.18 29.3 25.86 21.63 33.11 25.89 33.11 25.89 39.89"/><circle class="cls-1" cx="29.38" cy="32.8" r="13.54"/><polyline class="cls-1" points="37.09 19.1 37.09 14.51 22.75 0.65 0.65 0.65 0.65 41.08"/><polyline class="cls-1" points="0.65 40.93 0.65 50.88 37.09 50.88 37.09 45.36"/><path class="cls-2" d="M267.38,403.08l-.05-1.78a6.59,6.59,0,0,1-2.19-.54,3.79,3.79,0,0,1-1.49-1.35,5,5,0,0,1-.78-2.33l1.78-.39a4.52,4.52,0,0,0,.79,2.09,2.6,2.6,0,0,0,1.83,1l-.16-5.68a7.42,7.42,0,0,1-2.27-.79,3.29,3.29,0,0,1-1.35-1.28,4.2,4.2,0,0,1,.75-5,4.69,4.69,0,0,1,2.65-1l0-.85,1.05,0,0,.85a4.41,4.41,0,0,1,2.49.84,4.06,4.06,0,0,1,1.48,2.63l-1.83.33a3.07,3.07,0,0,0-.7-1.59,2.44,2.44,0,0,0-1.39-.7l.14,5.14a14.17,14.17,0,0,1,1.8.47,4.39,4.39,0,0,1,1.38.85,3.59,3.59,0,0,1,.84,1.23,4.27,4.27,0,0,1,.33,1.56,4.28,4.28,0,0,1-4.11,4.54l.05,1.8Zm-.44-15.62a2.64,2.64,0,0,0-1.62.88,2.48,2.48,0,0,0,0,3.12,3.51,3.51,0,0,0,1.76.93Zm1.4,12.3a2.64,2.64,0,0,0,1.69-1,2.79,2.79,0,0,0,.63-1.93,2.4,2.4,0,0,0-.52-1.55,4.15,4.15,0,0,0-1.95-1Z" transform="translate(-257.11 -379.21)"/></svg>