<svg id="Capa_1" data-name="Capa 1" xmlns="http://www.w3.org/2000/svg" viewBox="0 0 55.11 53.45"><defs><style>.cls-1,.cls-2{fill:none;stroke:#fff;stroke-linecap:round;stroke-miterlimit:10;stroke-width:2px;}.cls-1{fill-rule:evenodd;}</style></defs><title>token_entrega</title><path class="cls-1" d="M291.53,421.39A15.32,15.32,0,0,1,272,398l13.54-13.54a15.32,15.32,0,0,1,25.87,13.75" transform="translate(-266.5 -378.93)"/><path class="cls-1" d="M290.84,415.79a10.63,10.63,0,0,1-15-15l12.52-12.52a10.63,10.63,0,0,1,15,15l-1.53,1.53" transform="translate(-266.5 -378.93)"/><circle class="cls-2" cx="29.58" cy="16.59" r="2.6"/><polygon class="cls-2" points="29.23 31.61 29.23 43.49 40.94 43.49 40.94 50.95 53.73 37.55 41.07 24.15 41.07 31.61 29.23 31.61"/></svg>