<svg id="Capa_1" data-name="Capa 1" xmlns="http://www.w3.org/2000/svg" xmlns:xlink="http://www.w3.org/1999/xlink" viewBox="0 0 72.93 72.75"><defs><style>.cls-1{fill:url(#Degradado_sin_nombre_27);}.cls-2{fill:url(#Degradado_sin_nombre_27-2);}.cls-3{fill:url(#Degradado_sin_nombre_27-3);}.cls-4{fill:url(#Degradado_sin_nombre_27-4);}.cls-5{fill:url(#Degradado_sin_nombre_27-5);}.cls-6{fill:url(#Degradado_sin_nombre_27-6);}.cls-7{fill:url(#Degradado_sin_nombre_27-7);}</style><linearGradient id="Degradado_sin_nombre_27" x1="276.85" y1="370.3" x2="312.35" y2="418.8" gradientUnits="userSpaceOnUse"><stop offset="0" stop-color="#4c87c3"/><stop offset="1" stop-color="#95b95d"/></linearGradient><linearGradient id="Degradado_sin_nombre_27-2" x1="272.96" y1="373.15" x2="308.46" y2="421.65" xlink:href="#Degradado_sin_nombre_27"/><linearGradient id="Degradado_sin_nombre_27-3" x1="302.9" y1="351.24" x2="338.4" y2="399.74" xlink:href="#Degradado_sin_nombre_27"/><linearGradient id="Degradado_sin_nombre_27-4" x1="293.42" y1="358.18" x2="328.92" y2="406.68" xlink:href="#Degradado_sin_nombre_27"/><linearGradient id="Degradado_sin_nombre_27-5" x1="285.72" y1="363.81" x2="321.22" y2="412.31" xlink:href="#Degradado_sin_nombre_27"/><linearGradient id="Degradado_sin_nombre_27-6" x1="277.97" y1="369.48" x2="313.47" y2="417.98" xlink:href="#Degradado_sin_nombre_27"/><linearGradient id="Degradado_sin_nombre_27-7" x1="270.28" y1="375.11" x2="305.78" y2="423.61" xlink:href="#Degradado_sin_nombre_27"/></defs><title>dashboard</title><path class="cls-1" d="M275.2,413.58a1,1,0,0,1-.88-.53,36.48,36.48,0,0,1,27.95-53.4,1,1,0,0,1,1.11.88l1,8.27a1,1,0,0,1-.88,1.11,26.15,26.15,0,0,0-20,38.27,1,1,0,0,1-.41,1.35l-7.34,3.93A1,1,0,0,1,275.2,413.58Zm26.3-51.81a34.48,34.48,0,0,0-25.88,49.45l5.58-3a28.16,28.16,0,0,1,21-40.18Z" transform="translate(-270.02 -359.58)"/><path class="cls-2" d="M306.49,432.33A36.46,36.46,0,0,1,279,419.78a1,1,0,0,1,.1-1.41l6.28-5.46a1,1,0,0,1,1.41.1,26.14,26.14,0,0,0,39.58-.12,1,1,0,0,1,1.41-.11l6.31,5.42a1,1,0,0,1,.11,1.41A36.44,36.44,0,0,1,306.49,432.33Zm-25.35-13.12a34.46,34.46,0,0,0,50.84-.15l-4.8-4.12a28.14,28.14,0,0,1-41.27.12Z" transform="translate(-270.02 -359.58)"/><path class="cls-3" d="M337.53,414a1,1,0,0,1-.48-.12l-7.28-4a1,1,0,0,1-.39-1.36,26.15,26.15,0,0,0-20.28-38.65,1,1,0,0,1-.9-1.09l.82-8.28a1,1,0,0,1,.36-.67,1,1,0,0,1,.73-.22,36.48,36.48,0,0,1,28.29,53.92,1,1,0,0,1-.6.48A1,1,0,0,1,337.53,414Zm-5.94-5.43,5.54,3.07a34.48,34.48,0,0,0-26.22-50l-.62,6.3a28.16,28.16,0,0,1,21.31,40.61Z" transform="translate(-270.02 -359.58)"/><path class="cls-4" d="M322.58,407.81h-6a1,1,0,0,1-1-1V381.06a1,1,0,0,1,1-1h6a1,1,0,0,1,1,1v25.75A1,1,0,0,1,322.58,407.81Zm-5-2h4V382.06h-4Z" transform="translate(-270.02 -359.58)"/><path class="cls-5" d="M312.86,407.81h-6a1,1,0,0,1-1-1v-20a1,1,0,0,1,1-1h6a1,1,0,0,1,1,1v20A1,1,0,0,1,312.86,407.81Zm-5-2h4v-18h-4Z" transform="translate(-270.02 -359.58)"/><path class="cls-6" d="M303.14,407.81h-6a1,1,0,0,1-1-1v-14a1,1,0,0,1,1-1h6a1,1,0,0,1,1,1v14A1,1,0,0,1,303.14,407.81Zm-5-2h4v-12h-4Z" transform="translate(-270.02 -359.58)"/><path class="cls-7" d="M293.42,407.81h-6a1,1,0,0,1-1-1v-8.32a1,1,0,0,1,1-1h6a1,1,0,0,1,1,1v8.32A1,1,0,0,1,293.42,407.81Zm-5-2h4v-6.32h-4Z" transform="translate(-270.02 -359.58)"/></svg>