<?xml version="1.0" encoding="utf-8"?>
<!-- Generator: Adobe Illustrator 21.0.2, SVG Export Plug-In . SVG Version: 6.00 Build 0)  -->
<svg version="1.1" id="Capa_1" xmlns="http://www.w3.org/2000/svg" xmlns:xlink="http://www.w3.org/1999/xlink" x="0px" y="0px"
	 viewBox="0 0 90.2 34.5" style="enable-background:new 0 0 90.2 34.5;" xml:space="preserve">
<style type="text/css">
	.st0{fill:none;stroke:#3F6AD8;stroke-width:2.8;stroke-miterlimit:10;}
	.st1{clip-path:url(#SVGID_2_);}
	.st2{clip-path:url(#SVGID_4_);}
</style>
<title>autos</title>
<path class="st0" d="M78.6,27.8h9.1v-5.2c0-3.5-1.5-5.8-4.6-6.6c-3-0.9-8.2-2.1-15.4-3.8c-8.1-5.1-14.8-8-20-8.5
	c-7.8-0.9-25-2-34.9,7.1c-0.6,0.5-2.3,0.5-4,0.5H5.9c-2.9,0-4.1,1.8-3.8,5.5c0.6,5.5-0.3,8.8,2,9.5s7,0.7,10.1,0.7"/>
<g>
	<g>
		<defs>
			<circle id="SVGID_1_" cx="20.8" cy="25.9" r="6.5"/>
		</defs>
		<clipPath id="SVGID_2_">
			<use xlink:href="#SVGID_1_"  style="overflow:visible;"/>
		</clipPath>
		<g class="st1">
			<rect x="12.9" y="17.9" class="st0" width="15.9" height="15.9"/>
		</g>
	</g>
</g>
<circle class="st0" cx="20.8" cy="25.9" r="6.5"/>
<circle class="st0" cx="20.8" cy="25.9" r="6.5"/>
<g>
	<g>
		<defs>
			<circle id="SVGID_3_" cx="72.1" cy="25.9" r="6.5"/>
		</defs>
		<clipPath id="SVGID_4_">
			<use xlink:href="#SVGID_3_"  style="overflow:visible;"/>
		</clipPath>
		<g class="st2">
			<rect x="64.1" y="17.9" class="st0" width="15.9" height="15.9"/>
		</g>
	</g>
</g>
<circle class="st0" cx="72.1" cy="25.9" r="6.5"/>
<circle class="st0" cx="72.1" cy="25.9" r="6.5"/>
<line class="st0" x1="27.4" y1="27.9" x2="65.6" y2="27.9"/>
<path class="st0" d="M41.7,7.4l1.9,7.8l18,0.9c1.1,0.1,1.6-0.2,1.6-0.9c0-0.5-3.8-3.2-11.7-6.1C48.3,7.9,45,7.3,41.7,7.4z"/>
<path class="st0" d="M38.6,7.5c0,0.2,0.3,2.6,1,7.4l-17.5-1.3c-0.4-0.1-0.7-0.2-1-0.4c-1-0.7-0.7-1.5,0.4-2.1
	c2.3-1.4,4.9-2.3,7.6-2.7C32.5,7.6,38.6,7.2,38.6,7.5z"/>
</svg>
