<svg id="Capa_1" data-name="Capa 1" xmlns="http://www.w3.org/2000/svg" viewBox="0 0 17.31 21.48"><defs><style>.cls-1{fill:none;stroke:#70737b;stroke-miterlimit:10;stroke-width:0.6px;}</style></defs><title>alineacion</title><polygon class="cls-1" points="6.35 9.57 2.43 9.57 2.43 7.71 0.3 7.71 0.3 9.57 0.3 12.9 0.3 14.71 2.43 14.71 2.43 12.9 6.35 12.9 6.35 9.57"/><polyline class="cls-1" points="7.99 2.9 11.64 4.25 15.28 2.65"/><polyline class="cls-1" points="7.99 5.07 11.64 6.42 15.28 4.82"/><polyline class="cls-1" points="7.99 7.24 11.64 8.6 15.28 6.99"/><polyline class="cls-1" points="7.99 9.41 11.64 10.77 15.28 9.16"/><polyline class="cls-1" points="7.99 11.58 11.64 12.94 15.28 11.33"/><polyline class="cls-1" points="7.99 13.75 11.64 15.11 15.28 13.5"/><polyline class="cls-1" points="7.99 15.92 11.64 17.28 15.28 15.67"/><polyline class="cls-1" points="7.99 18.09 11.64 19.45 15.28 17.84"/><rect class="cls-1" x="6.51" y="0.3" width="10.5" height="20.88" rx="4.2" ry="4.2"/></svg>