<svg id="Capa_1" data-name="Capa 1" xmlns="http://www.w3.org/2000/svg" viewBox="0 0 21.4 14.05"><defs><style>.cls-1{fill:none;stroke:#70737b;stroke-miterlimit:10;stroke-width:0.6px;}</style></defs><title>atencion</title><polygon class="cls-1" points="0.38 7.05 3.02 8 5.45 1.45 2.71 0.39 0.38 7.05"/><path class="cls-1" d="M317.46,390.28a2.25,2.25,0,0,0,1.8,0,4.4,4.4,0,0,1,2.54.11l4.54,1.59s0,1.69-1.9,1.27l-2.22-.85a3.05,3.05,0,0,1-4.23,2" transform="translate(-312.01 -388.83)"/><polygon class="cls-1" points="15.28 1.76 17.82 0.5 20.99 6.94 18.35 8.11 15.28 1.76"/><path class="cls-1" d="M330.36,396.94a21.68,21.68,0,0,1-5.07,3.49l-4.12,2.11a.89.89,0,0,1-1-.29,1.12,1.12,0,0,1-.08-1l-.85.42a.87.87,0,0,1-.92-.16,1.09,1.09,0,0,1-.13-1.11,1.07,1.07,0,0,1-1.13-.45,1.32,1.32,0,0,1,.07-1.24,1,1,0,0,1,0-1.8l1.8-.85" transform="translate(-312.01 -388.83)"/><line class="cls-1" x1="5.14" y1="9.9" x2="9.26" y2="8"/><line class="cls-1" x1="6.19" y1="11.59" x2="10.53" y2="9.27"/><line class="cls-1" x1="8.1" y1="12.44" x2="11.48" y2="10.85"/></svg>