<svg id="Capa_1" data-name="Capa 1" xmlns="http://www.w3.org/2000/svg" viewBox="0 0 18.73 21.58"><defs><style>.cls-1,.cls-2{fill:none;stroke:#70737b;stroke-miterlimit:10;stroke-width:0.6px;}.cls-2{stroke-linecap:round;}</style></defs><title>balanceo</title><polyline class="cls-1" points="8.03 2.21 11.17 4.51 15.12 3.96"/><polyline class="cls-1" points="7.44 4.3 10.58 6.6 14.52 6.05"/><polyline class="cls-1" points="6.85 6.39 9.99 8.69 13.93 8.14"/><polyline class="cls-1" points="6.26 8.48 9.4 10.78 13.34 10.23"/><polyline class="cls-1" points="5.67 10.57 8.81 12.87 12.75 12.32"/><polyline class="cls-1" points="5.08 12.66 8.21 14.96 12.16 14.41"/><polyline class="cls-1" points="4.49 14.75 7.62 17.05 11.57 16.5"/><polyline class="cls-1" points="3.9 16.84 7.03 19.14 10.98 18.59"/><rect class="cls-1" x="395.75" y="282.56" width="10.5" height="20.88" rx="4.2" ry="4.2" transform="translate(-296.5 -380.36) rotate(15.81)"/><polyline class="cls-2" points="2.17 1.23 4.3 2.98 2.3 4.48"/><line class="cls-2" x1="0.3" y1="2.98" x2="3.8" y2="2.98"/><polyline class="cls-2" points="16.55 20.98 14.43 19.23 16.43 17.73"/><line class="cls-2" x1="18.43" y1="19.23" x2="14.93" y2="19.23"/></svg>