<svg id="Capa_1" data-name="Capa 1" xmlns="http://www.w3.org/2000/svg" viewBox="0 0 21.26 14.75"><defs><style>.cls-1{fill:none;stroke:#70737b;stroke-miterlimit:10;stroke-width:0.6px;}</style></defs><title>carroserias</title><path class="cls-1" d="M305.58,396.63l1.46-5.75s0-1.31,2.1-1.45a92.36,92.36,0,0,1,10.71.09,2,2,0,0,1,2,1.32l1.37,6,.4.2.08,5.65s-2.71.84-9.54.75a53.33,53.33,0,0,1-9.18-.9l0-5.74Z" transform="translate(-303.81 -389.02)"/><circle class="cls-1" cx="4.59" cy="10.39" r="1.55"/><circle class="cls-1" cx="16.49" cy="10.39" r="1.55"/><path class="cls-1" d="M306.08,394.31s-1.94-.69-2,.59c0,1.09-.14,1.55,1.46,1.73l17.6.23" transform="translate(-303.81 -389.02)"/><path class="cls-1" d="M322.8,394.31s1.94-.69,2,.59c0,1.09.14,1.55-1.46,1.73" transform="translate(-303.81 -389.02)"/></svg>