<svg id="Capa_1" data-name="Capa 1" xmlns="http://www.w3.org/2000/svg" viewBox="0 0 23.92 23.03"><defs><style>.cls-1{fill:none;stroke:#70737b;stroke-miterlimit:10;stroke-width:0.6px;}</style></defs><title>desponchadura</title><circle class="cls-1" cx="9.21" cy="13.82" r="8.91"/><circle class="cls-1" cx="9.21" cy="13.82" r="5.93"/><circle class="cls-1" cx="9.21" cy="13.82" r="1.48"/><polygon class="cls-1" points="6.83 10.3 8.46 9.42 8.63 10.99 7.94 11.34 6.83 10.3"/><polygon class="cls-1" points="5.13 13.37 5.45 11.55 6.79 12.38 6.64 13.14 5.13 13.37"/><polygon class="cls-1" points="6.17 16.41 4.99 14.99 6.5 14.51 6.98 15.13 6.17 16.41"/><polygon class="cls-1" points="8.72 18.11 6.99 17.48 8.03 16.3 8.76 16.58 8.72 18.11"/><polygon class="cls-1" points="11.9 17.37 10.24 18.18 10.12 16.61 10.83 16.28 11.9 17.37"/><polygon class="cls-1" points="10.18 9.49 11.85 10.29 10.68 11.36 9.99 11 10.18 9.49"/><polygon class="cls-1" points="13.11 11.39 13.78 13.11 12.2 13.1 11.94 12.36 13.11 11.39"/><polygon class="cls-1" points="13.85 14.79 12.97 16.42 11.96 15.2 12.35 14.52 13.85 14.79"/><circle class="cls-1" cx="20.14" cy="3.78" r="3.48"/><path class="cls-1" d="M323.38,391.55s1.45,10.95-3.71,10.78" transform="translate(-302.79 -384.3)"/><line class="cls-1" x1="19.88" y1="4.2" x2="21.75" y2="2.08"/></svg>