<svg id="Capa_1" data-name="Capa 1" xmlns="http://www.w3.org/2000/svg" viewBox="0 0 21.57 15.19"><defs><style>.cls-1{fill:none;stroke:#70737b;stroke-miterlimit:10;stroke-width:0.6px;}</style></defs><title>diferencial</title><path class="cls-1" d="M307.23,392.28v2.94h0v-2.94h.61A1.26,1.26,0,0,0,309.1,391v-.87a1.26,1.26,0,0,0-1.26-1.26h-2.42a1.26,1.26,0,0,0-1.26,1.26V391a1.26,1.26,0,0,0,1.26,1.26h.66v2.9s-.4.24-.4,1a1.65,1.65,0,0,0,.46,1.18l-.05-5.14Z" transform="translate(-303.86 -388.59)"/><rect class="cls-1" x="16.34" y="0.3" width="4.94" height="3.38" rx="1.26" ry="1.26"/><path class="cls-1" d="M323.88,400.1h-.67v-1.47h-1.11v1.47h-.64a1.26,1.26,0,0,0-1.26,1.26v.87a1.26,1.26,0,0,0,1.26,1.26h2.42a1.26,1.26,0,0,0,1.26-1.26v-.87A1.26,1.26,0,0,0,323.88,400.1Z" transform="translate(-303.86 -388.59)"/><path class="cls-1" d="M324.25,397.29V395a1.26,1.26,0,0,0-1-1.24v-1.45h-1.11v1.43h-3v4.77H323A1.26,1.26,0,0,0,324.25,397.29Z" transform="translate(-303.86 -388.59)"/><path class="cls-1" d="M317.74,395l-4.07.81h-5.74a.89.89,0,0,0-.68-.55l0,4.88h-1.1v-2.66l0,0,0,2.69h-.74a1.26,1.26,0,0,0-1.26,1.26v.87a1.26,1.26,0,0,0,1.26,1.26h2.42a1.26,1.26,0,0,0,1.26-1.26v-.87a1.26,1.26,0,0,0-1.26-1.26h-.57v-2.72a1,1,0,0,0,.64-.61h5.76l4.11.85v.55h.74v-3.77h-.74Z" transform="translate(-303.86 -388.59)"/></svg>