<svg id="Capa_1" data-name="Capa 1" xmlns="http://www.w3.org/2000/svg" viewBox="0 0 18.74 18.74"><defs><style>.cls-1{fill:none;stroke:#70737b;stroke-miterlimit:10;stroke-width:0.6px;}</style></defs><title>direccion</title><circle class="cls-1" cx="9.37" cy="9.37" r="9.07"/><path class="cls-1" d="M320.64,397.42a6.87,6.87,0,0,1-5.39,5.57v-3.06a2.63,2.63,0,0,1,.66-1.79,2.71,2.71,0,0,1,1.82-.67Z" transform="translate(-304.5 -386.9)"/><path class="cls-1" d="M307.18,397.42a6.87,6.87,0,0,0,5.39,5.57v-3.06a2.63,2.63,0,0,0-.66-1.79,2.71,2.71,0,0,0-1.82-.67Z" transform="translate(-304.5 -386.9)"/><path class="cls-1" d="M320.66,395.27a6.87,6.87,0,0,0-13.59,0h2.1a6.78,6.78,0,0,0,2.78-1.25,3.24,3.24,0,0,1,3.53-.29c.49.32,1.68,1.42,2.86,1.48S320.66,395.27,320.66,395.27Z" transform="translate(-304.5 -386.9)"/><circle class="cls-1" cx="9.37" cy="9.37" r="1.84"/></svg>