<svg id="Capa_1" data-name="Capa 1" xmlns="http://www.w3.org/2000/svg" viewBox="0 0 19.31 19.75"><defs><style>.cls-1{fill:none;stroke:#70737b;stroke-miterlimit:10;stroke-width:0.6px;}</style></defs><title>frenos</title><path class="cls-1" d="M315.16,387.77a8.76,8.76,0,1,1-8.76,8.76q0-.23,0-.45" transform="translate(-304.91 -385.85)"/><path class="cls-1" d="M315.07,386.15a9.87,9.87,0,0,0-9.87,9.87h5.62a4.71,4.71,0,0,1,1.38-2.85,4.84,4.84,0,0,1,2.9-1.19Z" transform="translate(-304.91 -385.85)"/><circle class="cls-1" cx="10.25" cy="10.68" r="3.35"/><circle class="cls-1" cx="16.53" cy="10.62" r="1.05"/><circle class="cls-1" cx="14.72" cy="6.27" r="1.05"/><circle class="cls-1" cx="14.74" cy="14.93" r="1.05"/><circle class="cls-1" cx="10.44" cy="16.62" r="1.05"/><circle class="cls-1" cx="6.14" cy="14.86" r="1.05"/><circle class="cls-1" cx="3.67" cy="8.57" r="0.59"/><circle class="cls-1" cx="8.5" cy="3.56" r="0.59"/></svg>