<svg id="Capa_1" data-name="Capa 1" xmlns="http://www.w3.org/2000/svg" viewBox="0 0 18.55 15.41"><defs><style>.cls-1{fill:none;stroke:#70737b;stroke-miterlimit:10;stroke-width:0.6px;}</style></defs><title>instalaciones</title><path class="cls-1" d="M317,400.78l10.52,0,0-2.59a1.25,1.25,0,0,0-1.26-1.38l-8,0s-1.35-.17-1.31,1.41Z" transform="translate(-313.31 -388.59)"/><path class="cls-1" d="M317.62,400.82v1a.83.83,0,0,0,.83.86c.9,0,.84-1,.84-1v-.8" transform="translate(-313.31 -388.59)"/><path class="cls-1" d="M325.23,400.82v1a.83.83,0,0,0,.83.86c.9,0,.84-1,.84-1v-.8" transform="translate(-313.31 -388.59)"/><ellipse class="cls-1" cx="5.58" cy="10.23" rx="0.7" ry="0.74"/><ellipse class="cls-1" cx="12.34" cy="10.23" rx="0.7" ry="0.74"/><path class="cls-1" d="M318.14,396.84l.45-2.25s.15-.92,1-.87l5.34,0a.94.94,0,0,1,1,.78l.44,2.28" transform="translate(-313.31 -388.59)"/><rect class="cls-1" x="3.29" y="7.6" width="1.64" height="0.36"/><rect class="cls-1" x="13" y="7.6" width="1.64" height="0.36"/><path class="cls-1" d="M313.61,404V390.78a1.89,1.89,0,0,1,1.89-1.89h14.17a1.89,1.89,0,0,1,1.89,1.89V404" transform="translate(-313.31 -388.59)"/></svg>