<svg id="Capa_1" data-name="Capa 1" xmlns="http://www.w3.org/2000/svg" viewBox="0 0 18.8 19.41"><defs><style>.cls-1{fill:none;stroke:#70737b;stroke-miterlimit:10;stroke-width:0.6px;}</style></defs><title>limpieza</title><path class="cls-1" d="M409.23,426.12a1.09,1.09,0,0,1,2.11-.19l1.16,4.49c.79,2.81-1.3,3.4-1.3,3.4l.56,2.13L406,437.5l-.65-2a2.34,2.34,0,0,1-2.53-1.84l-2-7.71s-.38-1.12.63-1.43a1,1,0,0,1,1.16.45" transform="translate(-399.85 -418.45)"/><path class="cls-1" d="M410.13,429.88l-1.77-7.25a.83.83,0,0,0-.73-.65,1,1,0,0,0-1.19,1.16" transform="translate(-399.85 -418.45)"/><path class="cls-1" d="M407.59,427.94l-1.6-6.3a.9.9,0,0,0-1.22-.51,1,1,0,0,0-.76,1.16l1.74,6.12" transform="translate(-399.85 -418.45)"/><path class="cls-1" d="M404.37,423.57a1,1,0,0,0-1.2-.59,1,1,0,0,0-.75,1.18l1.18,4.66" transform="translate(-399.85 -418.45)"/><path class="cls-1" d="M402.24,431.82h-.51a1.56,1.56,0,0,1-1.58-1.54v-10a1.56,1.56,0,0,1,1.58-1.54h11.45a1.56,1.56,0,0,1,1.58,1.54v10a1.56,1.56,0,0,1-1.58,1.54h-.51" transform="translate(-399.85 -418.45)"/><line class="cls-1" x1="14.9" y1="11.26" x2="17.58" y2="11.26"/><line class="cls-1" x1="14.41" y1="12.84" x2="18.8" y2="12.84"/></svg>