<svg id="Capa_1" data-name="Capa 1" xmlns="http://www.w3.org/2000/svg" viewBox="0 0 22.53 20.43"><defs><style>.cls-1{fill:none;stroke:#70737b;stroke-miterlimit:10;stroke-width:0.6px;}</style></defs><title>llantas_nuevas</title><path class="cls-1" d="M310.3,388.31a8.91,8.91,0,1,1,7.57,15.53" transform="translate(-302.75 -385.89)"/><path class="cls-1" d="M315.71,389.19h.37a5.93,5.93,0,0,1,4.92,9.24" transform="translate(-302.75 -385.89)"/><circle class="cls-1" cx="9.21" cy="11.21" r="8.91"/><circle class="cls-1" cx="9.21" cy="11.21" r="5.93"/><circle class="cls-1" cx="9.21" cy="11.21" r="1.48"/><polygon class="cls-1" points="6.83 7.69 8.46 6.82 8.63 8.39 7.94 8.74 6.83 7.69"/><polygon class="cls-1" points="5.13 10.76 5.45 8.94 6.79 9.77 6.64 10.54 5.13 10.76"/><polygon class="cls-1" points="6.17 13.81 4.99 12.38 6.5 11.9 6.98 12.52 6.17 13.81"/><polygon class="cls-1" points="8.72 15.5 6.99 14.88 8.03 13.7 8.76 13.98 8.72 15.5"/><polygon class="cls-1" points="11.9 14.76 10.24 15.58 10.12 14 10.83 13.68 11.9 14.76"/><polygon class="cls-1" points="10.18 6.88 11.85 7.68 10.68 8.75 9.99 8.39 10.18 6.88"/><polygon class="cls-1" points="13.11 8.79 13.78 10.51 12.2 10.49 11.94 9.76 13.11 8.79"/><polygon class="cls-1" points="13.85 12.19 12.97 13.81 11.96 12.59 12.35 11.92 13.85 12.19"/></svg>