<svg id="Capa_1" data-name="Capa 1" xmlns="http://www.w3.org/2000/svg" viewBox="0 0 17.82 17.96"><defs><style>.cls-1{fill:none;stroke:#70737b;stroke-miterlimit:10;stroke-width:0.6px;}</style></defs><title>m_prev</title><polygon class="cls-1" points="0.84 1.94 1.82 0.96 3.91 3.08 2.93 4.06 0.84 1.94"/><line class="cls-1" x1="3.47" y1="3.59" x2="7.87" y2="7.96"/><path class="cls-1" d="M326.76,393.9a3,3,0,0,0,3.22-.53,3.21,3.21,0,0,0,.81-3.78L329.55,391h-1.63l0-1.67L329.1,388a3.13,3.13,0,0,0-3.57.85,3.19,3.19,0,0,0-.46,3.42l-6.53,6.43a3,3,0,0,0-3.24.43,3.21,3.21,0,0,0-.92,3.75l1.28-1.33,1.63.06v1.67L316,404.54a3.13,3.13,0,0,0,3.59-.75,3.19,3.19,0,0,0,.57-3.41Z" transform="translate(-313.82 -387.48)"/><line class="cls-1" x1="9.65" y1="9.79" x2="12.35" y2="12.49"/><line class="cls-1" x1="10.81" y1="14.1" x2="13.97" y2="10.91"/><path class="cls-1" d="M325.29,401l3.64,3.68a1.32,1.32,0,0,0,2,0,1.41,1.41,0,0,0-.06-2l-3.7-3.6" transform="translate(-313.82 -387.48)"/></svg>