<svg id="Capa_1" data-name="Capa 1" xmlns="http://www.w3.org/2000/svg" viewBox="0 0 21.98 16.39"><defs><style>.cls-1{fill:none;stroke:#70737b;stroke-miterlimit:10;stroke-width:0.6px;}</style></defs><title>monitoreo</title><path class="cls-1" d="M318.82,394.57l.73-2.86s0-.65,1-.72a46,46,0,0,1,5.34,0,1,1,0,0,1,1,.66l.68,3,.2.1,0,2.81a17.4,17.4,0,0,1-4.75.37,26.56,26.56,0,0,1-4.57-.45l0-2.86Z" transform="translate(-312.07 -387.87)"/><circle class="cls-1" cx="8.16" cy="8.08" r="0.77"/><circle class="cls-1" cx="14.08" cy="8.08" r="0.77"/><path class="cls-1" d="M319.07,393.42s-1-.34-1,.3-.07.77.73.86l8.76.11" transform="translate(-312.07 -387.87)"/><path class="cls-1" d="M327.4,393.42s1-.34,1,.3.07.77-.73.86" transform="translate(-312.07 -387.87)"/><path class="cls-1" d="M320.46,398v.81a.76.76,0,0,1-.76.76h0a.76.76,0,0,1-.76-.76V398a.75.75,0,0,1,.06-.3" transform="translate(-312.07 -387.87)"/><path class="cls-1" d="M325.54,398v.81a.76.76,0,0,0,.76.76h0a.76.76,0,0,0,.76-.76V398a.75.75,0,0,0-.06-.3" transform="translate(-312.07 -387.87)"/><rect class="cls-1" x="0.3" y="0.3" width="21.38" height="13.76" rx="3.19" ry="3.19"/><polyline class="cls-1" points="13.35 13.98 14.06 16.09 8.01 16.09 8.71 14.12"/><path class="cls-1" d="M318.53,404h9.28" transform="translate(-312.07 -387.87)"/></svg>