<svg id="Capa_1" data-name="Capa 1" xmlns="http://www.w3.org/2000/svg" viewBox="0 0 11.11 21.76"><defs><style>.cls-1{fill:none;stroke:#70737b;stroke-miterlimit:10;stroke-width:0.6px;}</style></defs><title>muelles</title><path class="cls-1" d="M309.72,406.8s-1.42-1.74,1.51-2.83c1.42-.53,7.14-1.61,7.14-1.61s2.34-.76.93-2.32" transform="translate(-309.05 -385.23)"/><path class="cls-1" d="M309.81,403.77s-1.42-1.74,1.51-2.83c1.42-.53,7.14-1.61,7.14-1.61s2.34-.76.93-2.32" transform="translate(-309.05 -385.23)"/><path class="cls-1" d="M309.84,400.79s-1.42-1.74,1.51-2.83c1.42-.53,7.14-1.61,7.14-1.61s2.34-.76.93-2.32" transform="translate(-309.05 -385.23)"/><path class="cls-1" d="M309.69,398.2s-1.42-1.74,1.51-2.83c1.42-.53,7.14-1.61,7.14-1.61s2.34-.76.93-2.32" transform="translate(-309.05 -385.23)"/><path class="cls-1" d="M309.78,395.16s-1.42-1.74,1.51-2.83c1.42-.53,7.14-1.61,7.14-1.61s2.34-.76.93-2.32" transform="translate(-309.05 -385.23)"/><path class="cls-1" d="M309.81,392.19s-1.42-1.74,1.51-2.83c1.42-.53,7.14-1.61,7.14-1.61s2.34-.76.93-2.32" transform="translate(-309.05 -385.23)"/></svg>