<svg id="Capa_1" data-name="Capa 1" xmlns="http://www.w3.org/2000/svg" viewBox="0 0 25.14 15.56"><defs><style>.cls-1,.cls-2,.cls-3,.cls-4{fill:none;}.cls-1,.cls-2,.cls-4{stroke:#70737b;stroke-miterlimit:10;stroke-width:0.6px;}.cls-2{stroke-dasharray:1.36 1.36;}.cls-4{stroke-dasharray:1.66 1.66;}</style></defs><title>pintura</title><path class="cls-1" d="M302.9,394.77l1.25-4.94s0-1.13,1.8-1.25a79.27,79.27,0,0,1,9.19.08,1.75,1.75,0,0,1,1.68,1.14L318,395l.34.18.07,4.85s-2.33.72-8.18.64a45.77,45.77,0,0,1-7.88-.78l0-4.93Z" transform="translate(-301.34 -388.17)"/><circle class="cls-1" cx="3.99" cy="8.98" r="1.33"/><circle class="cls-1" cx="14.2" cy="8.98" r="1.33"/><path class="cls-1" d="M303.33,392.77s-1.66-.59-1.68.51c0,.94-.12,1.33,1.25,1.49l15.1.2" transform="translate(-301.34 -388.17)"/><path class="cls-1" d="M317.68,392.77s1.66-.59,1.68.51c0,.94.12,1.33-1.25,1.49" transform="translate(-301.34 -388.17)"/><path class="cls-1" d="M305.73,400.72v1.4a1.32,1.32,0,0,1-1.31,1.31h0a1.32,1.32,0,0,1-1.31-1.31v-1.4a1.3,1.3,0,0,1,.1-.51" transform="translate(-301.34 -388.17)"/><path class="cls-1" d="M314.48,400.72v1.4a1.32,1.32,0,0,0,1.31,1.31h0a1.32,1.32,0,0,0,1.31-1.31v-1.4a1.3,1.3,0,0,0-.1-.51" transform="translate(-301.34 -388.17)"/><line class="cls-1" x1="24.59" y1="8.63" x2="23.89" y2="9.34"/><line class="cls-2" x1="22.93" y1="10.3" x2="21.49" y2="11.75"/><line class="cls-1" x1="21.01" y1="12.24" x2="20.31" y2="12.95"/><path class="cls-3" d="M325.93,396.8" transform="translate(-301.34 -388.17)"/><path class="cls-3" d="M326.28,393.06" transform="translate(-301.34 -388.17)"/><line class="cls-1" x1="19.73" y1="0.22" x2="20.47" y2="0.89"/><line class="cls-4" x1="21.71" y1="2" x2="23.57" y2="3.67"/><line class="cls-1" x1="24.19" y1="4.22" x2="24.94" y2="4.89"/><line class="cls-1" x1="24.09" y1="6.59" x2="23.09" y2="6.66"/><line class="cls-1" x1="21.3" y1="6.8" x2="20.31" y2="6.87"/></svg>