<svg id="Capa_1" data-name="Capa 1" xmlns="http://www.w3.org/2000/svg" viewBox="0 0 18.58 18.58"><defs><style>.cls-1,.cls-2{fill:none;stroke:#70737b;stroke-miterlimit:10;}.cls-1{stroke-width:0.6px;}.cls-2{stroke-width:0.6px;}</style></defs><title>sin_clasificar</title><circle class="cls-1" cx="9.29" cy="9.29" r="8.99"/><path class="cls-2" d="M400,296.62c0-.19,0-.34,0-.44a4.09,4.09,0,0,1,.24-1.48,3.38,3.38,0,0,1,.58-.95,11,11,0,0,1,1-1,4.92,4.92,0,0,0,1-1.07,1.71,1.71,0,0,0,.23-.87,2,2,0,0,0-.67-1.5,2.25,2.25,0,0,0-1.63-.65,2.19,2.19,0,0,0-1.56.58,3.08,3.08,0,0,0-.82,1.83l-1.5-.18a3.57,3.57,0,0,1,3.85-3.43,4,4,0,0,1,2.78.95,3,3,0,0,1,1,2.3,2.9,2.9,0,0,1-.37,1.44,6.79,6.79,0,0,1-1.43,1.6,7.14,7.14,0,0,0-.93.93,2.07,2.07,0,0,0-.33.69,5.78,5.78,0,0,0-.12,1.27Zm-.09,2.93v-1.66h1.66v1.66Z" transform="translate(-391.44 -283.72)"/></svg>