<svg id="Capa_1" data-name="Capa 1" xmlns="http://www.w3.org/2000/svg" viewBox="0 0 22.21 19.55"><defs><style>.cls-1{fill:none;stroke:#70737b;stroke-miterlimit:10;stroke-width:0.6px;}</style></defs><title>sin_motor</title><polyline class="cls-1" points="18.97 16.47 21.91 16.47 21.91 1.5 5.22 1.5 4.67 0.3 1.69 0.3 1.79 13.61"/><polyline class="cls-1" points="21.82 14.16 0.3 13.79 0.3 16.47 4.76 16.47"/><line class="cls-1" x1="4.85" y1="3.35" x2="4.85" y2="12.22"/><line class="cls-1" x1="7.67" y1="3.35" x2="7.67" y2="12.22"/><line class="cls-1" x1="10.49" y1="3.35" x2="10.49" y2="12.22"/><line class="cls-1" x1="13.3" y1="3.35" x2="13.3" y2="12.22"/><line class="cls-1" x1="16.12" y1="3.35" x2="16.12" y2="12.22"/><line class="cls-1" x1="18.94" y1="3.35" x2="18.94" y2="12.22"/><ellipse class="cls-1" cx="7.17" cy="16.94" rx="2.32" ry="2.31"/><ellipse class="cls-1" cx="12" cy="16.94" rx="2.32" ry="2.31"/><ellipse class="cls-1" cx="16.87" cy="16.94" rx="2.32" ry="2.31"/><ellipse class="cls-1" cx="7.18" cy="17" rx="1.07" ry="1.07"/><ellipse class="cls-1" cx="12.02" cy="17" rx="1.07" ry="1.07"/><ellipse class="cls-1" cx="16.87" cy="17" rx="1.07" ry="1.07"/></svg>