<svg id="Capa_1" data-name="Capa 1" xmlns="http://www.w3.org/2000/svg" viewBox="0 0 19.79 19.73"><defs><style>.cls-1{fill:none;stroke:#70737b;stroke-linecap:round;stroke-miterlimit:10;stroke-width:0.6px;}</style></defs><title>suspension</title><path class="cls-1" d="M320.34,389a1.71,1.71,0,1,1,1.6,1.12,1.7,1.7,0,0,1-1.6-1.12" transform="translate(-304.15 -386.37)"/><path class="cls-1" d="M310.29,396.36s.18-2,2.7-.84c1.22.55,2.78,1.31,2.78,1.31s1.94,1,2-.88" transform="translate(-304.15 -386.37)"/><path class="cls-1" d="M312.23,394.51s.18-2,2.7-.84c1.22.55,2.78,1.31,2.78,1.31s1.94,1,2-.88" transform="translate(-304.15 -386.37)"/><path class="cls-1" d="M314.09,392.66s.18-2,2.7-.84c1.22.55,2.78,1.31,2.78,1.31s1.94,1,2-.88" transform="translate(-304.15 -386.37)"/><polyline class="cls-1" points="8.37 9.57 6.56 11.25 5.3 9.99 3.7 11.51 8.04 15.93 9.76 14.24 8.54 12.98 10.9 10.75"/><path class="cls-1" d="M321.4,390a1.21,1.21,0,0,0-.54.82c0,.48-.08.7-.08.7l-1.14,1.14" transform="translate(-304.15 -386.37)"/><path class="cls-1" d="M317,391.27l1.77-1.68.88-.12a1.27,1.27,0,0,0,.68-.48" transform="translate(-304.15 -386.37)"/><path class="cls-1" d="M307.89,399l-.69.69A1.49,1.49,0,0,0,307,401l.25.63,0,0a2.12,2.12,0,1,0,1.29,1.32l.62,0a1.53,1.53,0,0,0,1.14-.34L311,402Z" transform="translate(-304.15 -386.37)"/></svg>