<?xml version="1.0" encoding="utf-8"?>
<!-- Generator: Adobe Illustrator 21.0.2, SVG Export Plug-In . SVG Version: 6.00 Build 0)  -->
<svg version="1.1" id="Capa_1" xmlns="http://www.w3.org/2000/svg" xmlns:xlink="http://www.w3.org/1999/xlink" x="0px" y="0px"
	 viewBox="0 0 144 145" style="enable-background:new 0 0 144 145;" xml:space="preserve">
<style type="text/css">
	.st0{fill:none;enable-background:new    ;}
	.st1{fill:none;stroke:#6D727A;stroke-width:1.4536;stroke-miterlimit:10;}
</style>
<path class="st0" d="z"/>
<g>
	<path class="st1" d="M62.2,75.7c0,0,2.1,6.9-9.4,11c0,0-16.4,5.9-20.5,11.4c-4.1,5.5-5,10-5,20.5"/>
	<path class="st1" d="M83.7,75.3c0,0-0.5,7.4,6.4,10.2s16.2,7.3,16.2,7.3s11.9,5.3,12.1,17.8v8"/>
	<path class="st1" d="M87,27c3.9,4.4,4.8,11.6,5,15c0.2,2.8,0,5.2,0,6.5c0,0,1.6,1.8,1.3,5.1c-0.3,3.5-2.9,6.6-2.9,6.6
		s-1.5,19.6-17.7,19.4c-16.2-0.3-17.3-19.8-17.3-19.8S52.4,57,52,53.5c-0.5-3.4,0.6-5.2,0.6-5.2s-0.1-6.8,0.2-10
		c0.6-8.1,4.9-11.8,8.9-14.3c3.7-2.3,8.9-2.9,12.3-2.8C78.3,21.5,83.5,23,87,27z"/>
</g>
<g>
	<path class="st1" d="M30.9,77.7c0,0,2,6.6-8.9,10.5c0,0-15.7,5.7-19.7,10.9"/>
	<path class="st1" d="M51.5,77.4c0,0-0.3,4.8,3.3,8"/>
	<path class="st1" d="M56.9,67.6c-1.6,5.5-5.6,14-16,13.8c-15.5-0.3-16.5-18.9-16.5-18.9s-2.8-2.6-3.2-6c-0.4-3.3,0.5-5,0.5-5
		s-0.1-6.5,0.2-9.6c0.6-7.8,4.7-11.3,8.5-13.6c3.6-2.2,8.5-2.8,11.8-2.7c4.2,0.2,9.2,1.7,12.5,5.5"/>
</g>
<g>
	<path class="st1" d="M94.6,76.7c0,0,0.7,5.4-4.6,8.8"/>
	<path class="st1" d="M115.2,77.3c0,0-0.8,7.1,5.7,10C127.2,90.2,136,95,136,95s2.8,1.4,5.5,4.3"/>
	<path class="st1" d="M89.1,65.4c1.3,5.6,4.5,14.8,15.3,15.4c15.5,0.9,17.8-17.7,17.8-17.7s2.7-2.8,3.1-6.2c0.4-3.1-1-4.9-1-4.9
		c0.1-1.2,0.4-3.5,0.3-6.2c-0.1-3.3-0.6-10.2-4.1-14.6c-3.2-3.9-8-5.7-12.2-6.1c-3.3-0.3-8.2,0-11.9,2.1c-1.4,0.8-2.9,1.8-4.3,3
		c0,0-1.1,1.1-1.8,2.4"/>
</g>
</svg>
