<?xml version="1.0" encoding="utf-8"?>
<!-- Generator: Adobe Illustrator 21.0.2, SVG Export Plug-In . SVG Version: 6.00 Build 0)  -->
<svg version="1.1" id="Capa_1" xmlns="http://www.w3.org/2000/svg" xmlns:xlink="http://www.w3.org/1999/xlink" x="0px" y="0px"
	 viewBox="0 0 144 145" style="enable-background:new 0 0 144 145;" xml:space="preserve">
<style type="text/css">
	.st0{fill:none;enable-background:new    ;}
	.st1{fill:none;stroke:#6D727A;stroke-width:1.898;stroke-miterlimit:10;}
</style>
<path class="st0" d="z"/>
<path class="st1" d="M87.5,88.4c0,0,7.5,6,23.1,5.6c15.6-0.4,20.4-5.9,20.4-5.9"/>
<polyline class="st1" points="100.3,65.4 100.3,33.1 73.5,4.5 16.8,4.5 16.8,121.9 55,121.9 "/>
<line class="st1" x1="42.7" y1="69.5" x2="71.1" y2="36.9"/>
<ellipse class="st1" cx="50" cy="38.5" rx="7.8" ry="8.8"/>
<ellipse class="st1" cx="66.2" cy="65.6" rx="7.8" ry="8.8"/>
<path class="st1" d="M106.5,104.6c1.3,0.1,2.7,0.1,4.2,0c15.6-0.4,20.4-6.1,20.4-6.1"/>
<path class="st1" d="M107,115.4c1.2,0,2.4,0.1,3.7,0c15.6-0.4,20.4-6.1,20.4-6.1"/>
<path class="st1" d="M59.1,112.4c0,0,7.5,6,23.1,5.6c15.6-0.4,20.4-5.9,20.4-5.9"/>
<path class="st1" d="M59.1,123.1c0,0,7.5,6,23.1,5.6c15.6-0.4,20.4-6.1,20.4-6.1"/>
<ellipse class="st1" cx="109.5" cy="76.4" rx="21.8" ry="6.8"/>
<path class="st1" d="M106.8,126.9c7,0.6,15.4-0.8,24.1-6.6l0.3-43.9"/>
<line class="st1" x1="87.7" y1="76.5" x2="87.9" y2="88.9"/>
<ellipse class="st1" cx="81" cy="100.4" rx="21.8" ry="6.8"/>
<path class="st1" d="M59.2,100.4v33.9c3.1,1.5,22.1,10.9,43.2,0l0.3-33.9"/>
</svg>
