<?xml version="1.0" encoding="utf-8"?>
<!-- Generator: Adobe Illustrator 21.0.2, SVG Export Plug-In . SVG Version: 6.00 Build 0)  -->
<svg version="1.1" id="Capa_1" xmlns="http://www.w3.org/2000/svg" xmlns:xlink="http://www.w3.org/1999/xlink" x="0px" y="0px"
	 viewBox="0 0 144 145" style="enable-background:new 0 0 144 145;" xml:space="preserve">
<style type="text/css">
	.st0{fill:none;enable-background:new    ;}
	.st1{fill:none;stroke:#6D727A;stroke-width:2.2377;stroke-miterlimit:10;}
</style>
<path class="st0" d="z"/>
<g>
	<circle class="st1" cx="73" cy="72.3" r="23.5"/>
	<path class="st1" d="M141.1,60.5c0,1.8,0.2,23.7,0.2,23.7l-15.9-0.1c-1.4,6.4-4,12.3-7.4,17.6l10.6,11.5l-15.7,15.5l-11.4-10.7
		c-5.4,3.5-11.5,6-18,7.4l0.2,15.2L60,140.4l-0.1-15.2c-6.5-1.4-12.6-4-18-7.6l-11.2,11.5l-15.8-16.4l10.7-11.5
		c-3.3-5.2-5.7-10.9-7.1-17.1L2.5,83.8L2.8,61l15.6-0.1c1.4-6.4,3.8-12.5,7.1-17.7l-11.1-11l16-15.4l11,10.5
		c5.5-3.6,11.6-6.3,18.2-7.9L59.7,4l24,0.2l0,15.2c6.1,1.3,11.9,3.7,17.1,6.9L112,16l16.9,16.5l-11.1,10.2c3.6,5.4,6.2,11.5,7.6,18
		L141.1,60.5z"/>
</g>
</svg>
