<svg id="Capa_1" data-name="Capa 1" xmlns="http://www.w3.org/2000/svg" viewBox="0 0 66.57 62.99"><defs><style>.cls-1{fill:none;stroke:#6d727a;stroke-miterlimit:10;}.cls-2{fill:#6d727a;}</style></defs><title>gastos_gris</title><path class="cls-1" d="M319.6,427H278.3a4.12,4.12,0,0,1-4.11-4.11V369.12A4.12,4.12,0,0,1,278.3,365H319.6a4.12,4.12,0,0,1,4.11,4.11v15H281.64V372.52h34.72l.18,11.45" transform="translate(-273.69 -364.51)"/><rect class="cls-1" x="9.71" y="25.45" width="7.23" height="6.52" rx="2.05" ry="2.05"/><rect class="cls-1" x="21.78" y="25.45" width="7.23" height="6.52" rx="2.05" ry="2.05"/><path class="cls-1" d="M307.4,394.43V392a2.06,2.06,0,0,1,2.05-2.05h3.12" transform="translate(-273.69 -364.51)"/><rect class="cls-1" x="9.71" y="37.7" width="7.23" height="6.52" rx="2.05" ry="2.05"/><rect class="cls-1" x="21.78" y="37.7" width="7.23" height="6.52" rx="2.05" ry="2.05"/><rect class="cls-1" x="9.71" y="49.51" width="7.23" height="6.52" rx="2.05" ry="2.05"/><rect class="cls-1" x="21.78" y="49.51" width="7.23" height="6.52" rx="2.05" ry="2.05"/><path class="cls-1" d="M312.57,420.54h-3.12a2.06,2.06,0,0,1-2.05-2.05v-2.41" transform="translate(-273.69 -364.51)"/><path class="cls-2" d="M323.24,414.68l-.05-1.93a7.14,7.14,0,0,1-2.38-.58,4.11,4.11,0,0,1-1.61-1.47,5.4,5.4,0,0,1-.84-2.52l1.93-.42a4.9,4.9,0,0,0,.86,2.27,2.82,2.82,0,0,0,2,1.09L323,405a8.06,8.06,0,0,1-2.47-.86,3.57,3.57,0,0,1-1.46-1.39,4.56,4.56,0,0,1,.81-5.44,5.09,5.09,0,0,1,2.87-1.14l0-.92,1.14,0,0,.92a4.77,4.77,0,0,1,2.7.91,4.4,4.4,0,0,1,1.61,2.85l-2,.36a3.31,3.31,0,0,0-.76-1.73,2.63,2.63,0,0,0-1.51-.76l.16,5.58a15.42,15.42,0,0,1,2,.51,4.79,4.79,0,0,1,1.5.93,3.9,3.9,0,0,1,.91,1.33,4.62,4.62,0,0,1,.35,1.69,4.65,4.65,0,0,1-4.45,4.92l.06,2Zm-.48-16.94a2.87,2.87,0,0,0-1.75,1,2.69,2.69,0,0,0,0,3.39,3.81,3.81,0,0,0,1.9,1Zm1.52,13.34a2.86,2.86,0,0,0,1.84-1,3,3,0,0,0,.68-2.09,2.6,2.6,0,0,0-.57-1.68,4.49,4.49,0,0,0-2.11-1.09Z" transform="translate(-273.69 -364.51)"/><circle class="cls-1" cx="49.7" cy="40.6" r="16.37"/></svg>