<?xml version="1.0" encoding="utf-8"?>
<!-- Generator: Adobe Illustrator 21.0.2, SVG Export Plug-In . SVG Version: 6.00 Build 0)  -->
<svg version="1.1" id="Capa_1" xmlns="http://www.w3.org/2000/svg" xmlns:xlink="http://www.w3.org/1999/xlink" x="0px" y="0px"
	 viewBox="0 0 144 145" style="enable-background:new 0 0 144 145;" xml:space="preserve">
<style type="text/css">
	.st0{fill:none;enable-background:new    ;}
	.st1{fill:none;stroke:#6D727A;stroke-width:2.208;stroke-miterlimit:10;}
</style>
<path class="st0" d="z"/>
<g>
	<polygon class="st1" points="9,17.8 16.7,10.1 33.1,26.7 25.4,34.4 	"/>
	<line class="st1" x1="29.6" y1="30.7" x2="64.1" y2="65"/>
	<path class="st1" d="M103.8,52.9c0,0,13.2,6.4,25.3-4.2c14.7-12.8,6.4-29.6,6.4-29.6l-9.7,10.7l-12.7-0.1l-0.3-13.1l9.5-9.9
		c0,0-14.8-7.2-28,6.7c-11,11.6-3.6,26.8-3.6,26.8L39.4,90.7c0,0-13-6.8-25.4,3.4c-15,12.4-7.2,29.4-7.2,29.4l10.1-10.4l12.7,0.5
		l-0.1,13.1l-9.8,9.6c0,0,14.6,7.6,28.2-5.9c11.3-11.3,4.4-26.7,4.4-26.7L103.8,52.9z"/>
	<line class="st1" x1="78" y1="79.3" x2="99.2" y2="100.5"/>
	<line class="st1" x1="87.1" y1="113.1" x2="111.9" y2="88.1"/>
	<path class="st1" d="M92.3,108.3l28.5,28.8c0,0,7.9,8.6,15.6,0.2c7.5-8.2-0.5-15.8-0.5-15.8l-29-28.2"/>
</g>
</svg>
