<?xml version="1.0" encoding="utf-8"?>
<!-- Generator: Adobe Illustrator 21.0.2, SVG Export Plug-In . SVG Version: 6.00 Build 0)  -->
<svg version="1.1" id="Capa_1" xmlns="http://www.w3.org/2000/svg" xmlns:xlink="http://www.w3.org/1999/xlink" x="0px" y="0px"
	 viewBox="0 0 144 145" style="enable-background:new 0 0 144 145;" xml:space="preserve">
<style type="text/css">
	.st0{fill:none;enable-background:new    ;}
	.st1{fill:none;stroke:#6D727A;stroke-width:1.72;stroke-miterlimit:10;}
	.st2{clip-path:url(#SVGID_5_);}
	.st3{clip-path:url(#SVGID_6_);fill:none;stroke:#6D727A;stroke-width:1.72;stroke-miterlimit:10;}
	.st4{clip-path:url(#SVGID_8_);fill:none;stroke:#6D727A;stroke-width:1.72;stroke-miterlimit:10;}
	.st5{clip-path:url(#SVGID_10_);fill:none;stroke:#6D727A;stroke-width:1.72;stroke-miterlimit:10;}
	.st6{clip-path:url(#SVGID_12_);fill:none;stroke:#6D727A;stroke-width:1.72;stroke-miterlimit:10;}
	.st7{clip-path:url(#SVGID_14_);fill:none;stroke:#6D727A;stroke-width:1.72;stroke-miterlimit:10;}
	.st8{clip-path:url(#SVGID_16_);fill:none;stroke:#6D727A;stroke-width:1.72;stroke-miterlimit:10;}
	.st9{clip-path:url(#SVGID_18_);fill:none;stroke:#6D727A;stroke-width:1.72;stroke-miterlimit:10;}
	.st10{clip-path:url(#SVGID_20_);fill:none;stroke:#6D727A;stroke-width:1.72;stroke-miterlimit:10;}
</style>
<path class="st0" d="z"/>
<g>
	<defs>
		<path id="SVGID_1_" d="M39.2,43.8V20.2c0-3.5,2.8-6.3,6.3-6.3h50.8c3.5,0,6.3,2.8,6.3,6.3v35.3c0,3.5-2.8,6.3-6.3,6.3h-4.5"/>
	</defs>
	<clipPath id="SVGID_2_">
		<use xlink:href="#SVGID_1_"  style="overflow:visible;"/>
	</clipPath>
	
		<use xlink:href="#SVGID_1_"  style="overflow:visible;fill-rule:evenodd;clip-rule:evenodd;fill:none;stroke:#6D727A;stroke-width:1.72;stroke-miterlimit:10;"/>
</g>
<path class="st1" d="M106.9,30.5h17.3c2.5,0,4.9,1.4,6,3.7l4.8,9.4c1,2,1.6,4.2,1.6,6.5v20h-5.9h-2.8"/>
<path class="st1" d="M106.9,38.9v8.3h16.8c1.2,0,2.1-0.9,2.1-2.1c0-0.3-0.1-0.6-0.2-0.9l-1.5-3.2c-0.6-1.3-2-2.2-3.4-2.2H106.9z"/>
<g>
	<defs>
		<path id="SVGID_3_" d="M111,81.9c-0.7-0.2-1.3-0.5-2-0.9"/>
	</defs>
	<defs>
		<path id="SVGID_4_" d="M102.7,69.3c0.4-6.5,5.9-11.7,12.7-11.7c7,0,12.7,5.6,12.7,12.5s-5.7,12.5-12.7,12.5c-1.5,0-3-0.3-4.4-0.8"
			/>
	</defs>
	<clipPath id="SVGID_5_">
		<use xlink:href="#SVGID_3_"  style="overflow:visible;"/>
	</clipPath>
	<clipPath id="SVGID_6_" class="st2">
		<use xlink:href="#SVGID_4_"  style="overflow:visible;"/>
	</clipPath>
	<rect x="94.1" y="49" class="st3" width="42.6" height="42.2"/>
	
		<use xlink:href="#SVGID_3_"  style="overflow:visible;fill-rule:evenodd;clip-rule:evenodd;fill:none;stroke:#6D727A;stroke-width:1.72;stroke-miterlimit:10;"/>
	
		<use xlink:href="#SVGID_4_"  style="overflow:visible;fill-rule:evenodd;clip-rule:evenodd;fill:none;stroke:#6D727A;stroke-width:1.72;stroke-miterlimit:10;"/>
</g>
<path class="st1" d="M15.6,88.9h-1c-4,0-7.2-3.2-7.2-7.2V70.2l0.2-15.5c0-4.2,3.4-7.5,7.6-7.5h57.9c5.3,0,10,3.1,12.2,7.8l5.8,12.5
	l11,3.8c2.9,1,4.8,3.7,4.8,6.8v10.7h-8.5"/>
<line class="st1" x1="64.6" y1="88.9" x2="36.9" y2="88.9"/>
<path class="st1" d="M60.4,56v8.7c0,0.7,0.6,1.3,1.3,1.3h18.7c0.7,0,1.3-0.6,1.3-1.3c0-0.1,0-0.2,0-0.3l-1.1-4.7
	c-0.9-3.7-4.2-6.3-7.9-6.3h-9.6C61.5,53.4,60.4,54.6,60.4,56z"/>
<g>
	<defs>
		<ellipse id="SVGID_7_" cx="26.5" cy="88.9" rx="10.6" ry="10.4"/>
	</defs>
	<clipPath id="SVGID_8_">
		<use xlink:href="#SVGID_7_"  style="overflow:visible;"/>
	</clipPath>
	<rect x="7.4" y="69.8" class="st4" width="38.3" height="38"/>
	
		<use xlink:href="#SVGID_7_"  style="overflow:visible;fill-rule:evenodd;clip-rule:evenodd;fill:none;stroke:#6D727A;stroke-width:1.72;stroke-miterlimit:10;"/>
</g>
<path class="st1" d="M77.3,88.9c0-5.8,4.7-10.4,10.6-10.4s10.6,4.7,10.6,10.4c0,1.2-0.2,2.4-0.6,3.5"/>
<g>
	<defs>
		<path id="SVGID_9_" d="M124.8,123.5h11.4v-6.7c0-4.5-1.9-7.4-5.7-8.5c-3.8-1.1-10.3-2.7-19.4-4.8C100.9,97,92.6,93.4,86,92.7
			c-9.8-1.1-31.5-2.6-43.8,9c-0.7,0.7-2.9,0.7-5.1,0.7c-1.2,0-2.4,0-3.6,0c-3.6,0-5.2,2.3-4.7,7c0.7,7-0.4,11.3,2.5,12.2
			c2.9,0.9,8.8,0.9,12.7,0.9"/>
	</defs>
	<clipPath id="SVGID_10_">
		<use xlink:href="#SVGID_9_"  style="overflow:visible;"/>
	</clipPath>
	<rect x="19.3" y="82.6" class="st5" width="126.2" height="50.2"/>
	
		<use xlink:href="#SVGID_9_"  style="overflow:visible;fill-rule:evenodd;clip-rule:evenodd;fill:none;stroke:#6D727A;stroke-width:1.72;stroke-miterlimit:10;"/>
</g>
<g>
	<defs>
		<ellipse id="SVGID_11_" cx="52.7" cy="122.4" rx="8" ry="7.9"/>
	</defs>
	<clipPath id="SVGID_12_">
		<use xlink:href="#SVGID_11_"  style="overflow:visible;"/>
	</clipPath>
	<rect x="35.4" y="105.2" class="st6" width="34.6" height="34.4"/>
	
		<use xlink:href="#SVGID_11_"  style="overflow:visible;fill-rule:evenodd;clip-rule:evenodd;fill:none;stroke:#6D727A;stroke-width:1.72;stroke-miterlimit:10;"/>
</g>
<ellipse class="st1" cx="52.7" cy="122.4" rx="8" ry="7.9"/>
<g>
	<defs>
		<ellipse id="SVGID_13_" cx="116.8" cy="122.4" rx="8" ry="7.9"/>
	</defs>
	<clipPath id="SVGID_14_">
		<use xlink:href="#SVGID_13_"  style="overflow:visible;"/>
	</clipPath>
	<rect x="99.4" y="105.2" class="st7" width="34.6" height="34.4"/>
	
		<use xlink:href="#SVGID_13_"  style="overflow:visible;fill-rule:evenodd;clip-rule:evenodd;fill:none;stroke:#6D727A;stroke-width:1.72;stroke-miterlimit:10;"/>
</g>
<ellipse class="st1" cx="116.8" cy="122.4" rx="8" ry="7.9"/>
<g>
	<defs>
		<line id="SVGID_15_" x1="60.7" y1="121.4" x2="108.6" y2="121.4"/>
	</defs>
	<clipPath id="SVGID_16_">
		<use xlink:href="#SVGID_15_"  style="overflow:visible;"/>
	</clipPath>
	<rect x="51.4" y="112.1" class="st8" width="66.5" height="18.6"/>
	
		<use xlink:href="#SVGID_15_"  style="overflow:visible;fill-rule:evenodd;clip-rule:evenodd;fill:none;stroke:#6D727A;stroke-width:1.72;stroke-miterlimit:10;"/>
</g>
<line class="st1" x1="60.7" y1="121.4" x2="108.6" y2="121.4"/>
<g>
	<defs>
		<path id="SVGID_17_" d="M79,96.5l2.3,9l23.1,2.2c1.4,0.1,2-0.3,2-1.1c0-0.7-4.9-4.2-15-7.9C87.5,97.2,83.3,96.5,79,96.5z"/>
	</defs>
	<clipPath id="SVGID_18_">
		<use xlink:href="#SVGID_17_"  style="overflow:visible;"/>
	</clipPath>
	<rect x="69.7" y="87.1" class="st9" width="46.1" height="29.9"/>
	
		<use xlink:href="#SVGID_17_"  style="overflow:visible;fill-rule:evenodd;clip-rule:evenodd;fill:none;stroke:#6D727A;stroke-width:1.72;stroke-miterlimit:10;"/>
</g>
<g>
	<defs>
		<path id="SVGID_19_" d="M75.5,96.6c0,0.2,0.4,3.2,1.2,8.9L55.8,104c-0.5-0.1-0.9-0.3-1.2-0.4c-1.2-0.9-0.8-1.8,0.5-2.6
			c2.3-1.4,4.9-2.4,9-3.3C68.2,96.7,75.5,96.2,75.5,96.6z"/>
	</defs>
	<clipPath id="SVGID_20_">
		<use xlink:href="#SVGID_19_"  style="overflow:visible;"/>
	</clipPath>
	<rect x="44.5" y="87.1" class="st10" width="41.5" height="27.6"/>
	
		<use xlink:href="#SVGID_19_"  style="overflow:visible;fill-rule:evenodd;clip-rule:evenodd;fill:none;stroke:#6D727A;stroke-width:1.72;stroke-miterlimit:10;"/>
</g>
</svg>
