<?xml version="1.0" encoding="utf-8"?>
<!-- Generator: Adobe Illustrator 21.0.2, SVG Export Plug-In . SVG Version: 6.00 Build 0)  -->
<svg version="1.1" id="Capa_1" xmlns="http://www.w3.org/2000/svg" xmlns:xlink="http://www.w3.org/1999/xlink" x="0px" y="0px"
	 viewBox="0 0 144 145" style="enable-background:new 0 0 144 145;" xml:space="preserve">
<style type="text/css">
	.st0{fill:none;enable-background:new    ;}
	.st1{fill:none;stroke:#6D727A;stroke-width:1.8443;stroke-miterlimit:10;}
</style>
<path class="st0" d="z"/>
<path class="st1" d="M21.1,83.9v45.3h-13v-110h13v58.3h15.1V71h-4.3V54.5c0-3.3,1-6.5,2.8-9.2l1.5-2.3l5-21.5
	c0.9-3.9,4.3-6.6,8.3-6.6h42.7c4,0,7.4,2.7,8.3,6.6l5,21.5l1.5,2.3c1.8,2.7,2.8,5.9,2.8,9.2V71h-4.3v6.5h15.1V19.2h13v110h-13V83.9
	H90.3v-6.5h4.3V71H47v6.5h4.3v6.5H21.1z"/>
<path class="st1" d="M47.2,44.4h47.1c1,0,1.8-0.8,1.8-1.8c0-0.1,0-0.3,0-0.4l-3.5-16.6c-0.2-0.9-0.9-1.5-1.8-1.5h-40
	c-0.9,0-1.6,0.6-1.8,1.5l-3.5,16.6c-0.2,1,0.4,2,1.4,2.2C47,44.4,47.1,44.4,47.2,44.4z"/>
<circle class="st1" cx="46.8" cy="57.3" r="5.5"/>
<circle class="st1" cx="94.8" cy="57.3" r="5.5"/>
</svg>
