<svg id="Capa_1" data-name="Capa 1" xmlns="http://www.w3.org/2000/svg" viewBox="0 0 17.45 17.45"><defs><style>.cls-1{fill:none;stroke:#70737b;stroke-miterlimit:10;stroke-width:0.6px;}</style></defs><title>gas</title><path class="cls-1" d="M322.11,398.1a31.21,31.21,0,0,1-1-3.15,12.59,12.59,0,0,0-.67-2h0l.65.5a.32.32,0,0,0,.44-.05.31.31,0,0,0-.05-.43l-2.19-1.7a.32.32,0,0,0-.19-.07h-.52V388.6a.75.75,0,0,0-.76-.74H306.75a.75.75,0,0,0-.75.74V404a.75.75,0,0,0,.75.74h11.06a.75.75,0,0,0,.76-.74v-5.41a3.87,3.87,0,0,1,.58,3,2.32,2.32,0,0,0,1,2.5,1.59,1.59,0,0,0,.73.18,1.66,1.66,0,0,0,1.1-.43C322.41,403.42,323.63,401.94,322.11,398.1Zm-3.19-5.55a1.12,1.12,0,0,1-.35-.07v-.06A1.53,1.53,0,0,1,318.92,392.54Zm2.49,10.58a.71.71,0,0,1-.83.13c-.35-.18-.67-.7-.55-1.62.33-2.59-.72-3.77-1.46-4.28v-4.44a1.58,1.58,0,0,0,.38,0h.44a7.53,7.53,0,0,1,.84,2.22,32,32,0,0,0,1.06,3.24C322.32,401.05,322,402.58,321.41,403.13Z" transform="translate(-305.7 -387.56)"/><path class="cls-1" d="M316.23,389.54h-7.82a.73.73,0,0,0-.72.73v4.43a.73.73,0,0,0,.72.73h3.4l1.26-3.61a.11.11,0,0,1,.13-.07.11.11,0,0,1,.08.12l-.49,3.56h3.44a.73.73,0,0,0,.72-.73v-4.43A.73.73,0,0,0,316.23,389.54Z" transform="translate(-305.7 -387.56)"/></svg>